<svg xmlns="http://www.w3.org/2000/svg" fill="none" viewBox="0 0 48 48">
  <g fill="#D49900" clip-path="url(#a)">
    <path d="M40.6071 20.6786h3.3215c1.8343 0 3.3214 1.487 3.3214 3.3214s-1.4871 3.3214-3.3214 3.3214h-3.3215c-1.8343 0-3.3214-1.487-3.3214-3.3214s1.4871-3.3214 3.3214-3.3214Zm-7.6156-10.2492 2.3486-2.34865c1.2971-1.2971 3.4001-1.2971 4.6972 0 1.2971 1.2971 1.2971 3.40015 0 4.69725l-2.3486 2.3486c-1.2971 1.2971-3.4001 1.2971-4.6972 0-1.2971-1.2971-1.2971-3.4001 0-4.6972Zm0 27.2593c-1.2971-1.2971-1.2971-3.4001 0-4.6972 1.2971-1.2971 3.4001-1.2971 4.6972 0l2.3486 2.3486c1.2971 1.2971 1.2971 3.4001 0 4.6972-1.2971 1.2971-3.4001 1.2971-4.6972 0l-2.3486-2.3486ZM4.07143 20.6786h3.32143c1.83437 0 3.32144 1.487 3.32144 3.3214s-1.48707 3.3214-3.32144 3.3214H4.07143C2.23705 27.3214.75 25.8344.75 24s1.48705-3.3214 3.32143-3.3214ZM24 .75c1.8344 0 3.3214 1.48705 3.3214 3.32143v3.32143c0 1.83437-1.487 3.32144-3.3214 3.32144s-3.3214-1.48707-3.3214-3.32144V4.07143C20.6786 2.23705 22.1656.75 24 .75Zm0 36.5357c1.8344 0 3.3214 1.4871 3.3214 3.3214v3.3215c0 1.8343-1.487 3.3214-3.3214 3.3214s-3.3214-1.4871-3.3214-3.3214v-3.3215c0-1.8343 1.487-3.3214 3.3214-3.3214ZM8.08075 8.08075c1.2971-1.2971 3.40015-1.2971 4.69725 0l2.3486 2.34865c1.2971 1.2971 1.2971 3.4001 0 4.6972-1.2971 1.2971-3.4001 1.2971-4.6972 0L8.08075 12.778c-1.2971-1.2971-1.2971-3.40015 0-4.69725Zm0 31.95655c-1.2971-1.2971-1.2971-3.4001 0-4.6972l2.34865-2.3486c1.2971-1.2971 3.4001-1.2971 4.6972 0 1.2971 1.2971 1.2971 3.4001 0 4.6972l-2.3486 2.3486c-1.2971 1.2971-3.40015 1.2971-4.69725 0ZM30 24c0 3.3137-2.6863 6-6 6s-6-2.6863-6-6 2.6863-6 6-6 6 2.6863 6 6Z"/>
  </g>
  <defs>
    <clipPath id="a">
      <path fill="#fff" d="M0 0h48v48H0z"/>
    </clipPath>
  </defs>
</svg>
